# xmcd CD database file
#
# Track frame offsets:
#	150
#	28416
#	57813
#	99431
#	121652
#	141701
#	200473
#	231317
#	245612
#
# Disc length: 3620 seconds
#
# Revision: 0
# Processed by: cddbd v1.5.2PL0 Copyright (c) Steve Scherf et al.
# Submitted via: CDex 1.70beta2
#
DISCID=820e2209
DTITLE=Wes Montgomery - ジャズの巨人たち～スーパー・ベスト
DYEAR=2008
DGENRE=Jazz
TTITLE0=フォア・オン・シックス
TTITLE1=ベサメ・ムーチョ
TTITLE2=フル・ハウス
TTITLE3=ラウンド・ミッドナイト
TTITLE4=エアジン
TTITLE5=ノー・ブルース
TTITLE6=ナイト・トレイン
TTITLE7=夢のカリフォルニア
TTITLE8=ア・デイ・イン・ザ・ライフ
EXTD=YEAR: 2008
EXTT0=
EXTT1=
EXTT2=
EXTT3=
EXTT4=
EXTT5=
EXTT6=
EXTT7=
EXTT8=
PLAYORDER=
